<svg xmlns="http://www.w3.org/2000/svg" xmlns:xlink="http://www.w3.org/1999/xlink" width="50" zoomAndPan="magnify" viewBox="0 0 37.5 37.499999" height="50" preserveAspectRatio="xMidYMid meet" version="1.2"><defs><clipPath id="dff7e5b57e"><path d="M 1 1.289062 L 37 1.289062 L 37 36 L 1 36 Z M 1 1.289062 "/></clipPath><clipPath id="d625cdc2d6"><path d="M 9 1.289062 L 29 1.289062 L 29 36 L 9 36 Z M 9 1.289062 "/></clipPath><clipPath id="d7ae9dea1e"><path d="M 18 1.289062 L 20 1.289062 L 20 36 L 18 36 Z M 18 1.289062 "/></clipPath></defs><g id="1e7ef9463b"><g clip-rule="nonzero" clip-path="url(#dff7e5b57e)"><path style=" stroke:none;fill-rule:nonzero;fill:#0000ff;fill-opacity:1;" d="M 3.730469 24.738281 C 3.859375 25.042969 3.988281 25.328125 4.117188 25.605469 C 4.871094 25.589844 5.78125 25.484375 6.824219 25.292969 C 7.785156 25.125 8.964844 24.851562 10.328125 24.488281 C 14.988281 23.21875 20.800781 21.015625 26.695312 18.289062 C 27.484375 17.925781 28.253906 17.5625 28.984375 17.207031 L 27.886719 15.03125 C 27.738281 14.726562 27.753906 14.375 27.929688 14.089844 C 28.140625 13.75 28.519531 13.566406 28.925781 13.640625 L 35.238281 14.792969 C 35.273438 14.800781 35.304688 14.808594 35.339844 14.820312 C 33.660156 7.425781 27.03125 1.886719 19.132812 1.886719 C 9.972656 1.886719 2.523438 9.339844 2.523438 18.5 C 2.523438 19.5 2.613281 20.5 2.789062 21.484375 C 3.398438 20.933594 4.113281 20.34375 4.925781 19.730469 C 5.007812 19.667969 5.117188 19.652344 5.214844 19.691406 C 5.3125 19.730469 5.382812 19.816406 5.398438 19.917969 C 5.550781 20.78125 5.75 21.625 5.988281 22.429688 C 6.023438 22.546875 5.984375 22.671875 5.890625 22.746094 C 5 23.460938 4.273438 24.132812 3.730469 24.738281 Z M 5.835938 28.449219 C 8.96875 32.628906 13.902344 35.109375 19.132812 35.109375 C 28.296875 35.109375 35.75 27.65625 35.75 18.5 C 35.75 17.902344 35.71875 17.3125 35.65625 16.734375 L 33.105469 21.929688 C 32.9375 22.265625 32.601562 22.472656 32.230469 22.472656 C 31.863281 22.472656 31.53125 22.269531 31.367188 21.9375 L 30.316406 19.855469 C 29.535156 20.234375 28.742188 20.613281 27.9375 20.984375 C 21.535156 23.945312 15.28125 26.28125 10.324219 27.554688 C 9.492188 27.769531 8.777344 27.9375 8.128906 28.066406 C 7.300781 28.238281 6.535156 28.367188 5.835938 28.449219 Z M 19.132812 35.707031 C 13.535156 35.707031 8.269531 32.96875 5.046875 28.378906 C 4.984375 28.292969 4.972656 28.179688 5.019531 28.082031 C 5.066406 27.984375 5.15625 27.921875 5.261719 27.910156 C 6.070312 27.835938 6.996094 27.691406 8.007812 27.484375 C 8.648438 27.355469 9.355469 27.1875 10.175781 26.976562 C 15.097656 25.710938 21.316406 23.390625 27.683594 20.441406 C 28.578125 20.03125 29.457031 19.609375 30.320312 19.191406 C 30.464844 19.121094 30.644531 19.179688 30.71875 19.328125 L 31.902344 21.671875 C 32.03125 21.933594 32.441406 21.925781 32.570312 21.664062 L 35.398438 15.910156 C 35.449219 15.808594 35.449219 15.6875 35.398438 15.585938 C 35.34375 15.476562 35.246094 15.402344 35.128906 15.378906 L 28.824219 14.226562 C 28.679688 14.199219 28.519531 14.269531 28.4375 14.402344 C 28.367188 14.511719 28.363281 14.644531 28.421875 14.761719 L 29.652344 17.210938 C 29.6875 17.28125 29.695312 17.363281 29.667969 17.4375 C 29.644531 17.511719 29.589844 17.574219 29.515625 17.609375 C 28.703125 18.011719 27.835938 18.421875 26.945312 18.832031 C 21.023438 21.574219 15.175781 23.785156 10.484375 25.066406 C 9.101562 25.433594 7.90625 25.707031 6.929688 25.882812 C 5.765625 26.09375 4.757812 26.203125 3.929688 26.203125 C 3.8125 26.203125 3.710938 26.136719 3.660156 26.035156 C 3.472656 25.648438 3.292969 25.242188 3.109375 24.792969 C 3.066406 24.691406 3.085938 24.570312 3.160156 24.484375 C 3.707031 23.851562 4.445312 23.152344 5.359375 22.410156 C 5.183594 21.789062 5.027344 21.152344 4.898438 20.5 C 4.085938 21.132812 3.386719 21.730469 2.808594 22.28125 C 2.730469 22.359375 2.617188 22.386719 2.515625 22.351562 C 2.410156 22.320312 2.332031 22.238281 2.308594 22.128906 C 2.054688 20.941406 1.925781 19.71875 1.925781 18.5 C 1.925781 9.011719 9.644531 1.289062 19.132812 1.289062 C 28.625 1.289062 36.347656 9.011719 36.347656 18.5 C 36.347656 27.988281 28.625 35.707031 19.132812 35.707031 Z M 19.132812 35.707031 "/></g><g clip-rule="nonzero" clip-path="url(#d625cdc2d6)"><path style=" stroke:none;fill-rule:nonzero;fill:#0000ff;fill-opacity:1;" d="M 19.132812 1.886719 C 14.160156 1.886719 10.113281 9.339844 10.113281 18.5 C 10.113281 20.527344 10.3125 22.507812 10.699219 24.382812 C 15.320312 23.089844 20.984375 20.929688 26.695312 18.289062 L 27.238281 18.035156 C 27.539062 17.894531 27.84375 17.75 28.140625 17.609375 C 28.125 16.828125 28.070312 16.023438 27.980469 15.210938 L 27.890625 15.03125 C 27.765625 14.773438 27.753906 14.484375 27.851562 14.230469 C 26.800781 6.960938 23.222656 1.886719 19.132812 1.886719 Z M 10.476562 25.054688 C 10.421875 25.054688 10.367188 25.039062 10.320312 25.011719 C 10.25 24.96875 10.203125 24.898438 10.183594 24.820312 C 9.742188 22.808594 9.515625 20.683594 9.515625 18.5 C 9.515625 9.011719 13.828125 1.289062 19.132812 1.289062 C 23.542969 1.289062 27.378906 6.613281 28.457031 14.234375 C 28.464844 14.296875 28.453125 14.363281 28.425781 14.417969 C 28.367188 14.523438 28.367188 14.648438 28.421875 14.765625 L 28.535156 14.988281 C 28.554688 15.019531 28.5625 15.054688 28.566406 15.089844 C 28.667969 16.007812 28.726562 16.917969 28.742188 17.792969 C 28.742188 17.910156 28.675781 18.015625 28.570312 18.066406 C 28.214844 18.238281 27.851562 18.40625 27.492188 18.574219 L 26.949219 18.832031 C 21.082031 21.542969 15.261719 23.75 10.554688 25.042969 C 10.527344 25.050781 10.5 25.054688 10.476562 25.054688 Z M 11.476562 27.25 C 13.121094 32.105469 16.039062 35.109375 19.132812 35.109375 C 23.625 35.109375 27.414062 29.046875 28.0625 20.925781 L 27.933594 20.984375 C 22.058594 23.703125 16.226562 25.921875 11.476562 27.25 Z M 19.132812 35.707031 C 15.707031 35.707031 12.519531 32.421875 10.808594 27.136719 C 10.785156 27.058594 10.792969 26.976562 10.832031 26.902344 C 10.871094 26.832031 10.9375 26.777344 11.015625 26.757812 C 15.789062 25.449219 21.710938 23.203125 27.683594 20.441406 L 27.898438 20.34375 C 28.023438 20.289062 28.148438 20.230469 28.269531 20.175781 C 28.363281 20.128906 28.476562 20.136719 28.5625 20.199219 C 28.652344 20.257812 28.699219 20.359375 28.691406 20.464844 C 28.144531 29.152344 24.035156 35.707031 19.132812 35.707031 Z M 19.132812 35.707031 "/></g><path style=" stroke:none;fill-rule:nonzero;fill:#0000ff;fill-opacity:1;" d="M 5.164062 23.351562 C 5.921875 23.992188 6.824219 24.578125 7.847656 25.09375 C 8.625 24.925781 9.457031 24.722656 10.328125 24.488281 C 14.988281 23.21875 20.800781 21.015625 26.695312 18.289062 C 27.484375 17.925781 28.253906 17.5625 28.984375 17.207031 L 27.886719 15.03125 C 27.738281 14.726562 27.753906 14.375 27.929688 14.089844 C 28.140625 13.75 28.519531 13.566406 28.925781 13.636719 L 34.085938 14.582031 C 31.3125 11.46875 25.570312 9.492188 19.132812 9.492188 C 9.972656 9.492188 2.523438 13.53125 2.523438 18.5 C 2.523438 19.378906 2.761719 20.253906 3.230469 21.097656 C 3.792969 20.613281 4.351562 20.164062 4.925781 19.730469 C 5.007812 19.667969 5.117188 19.652344 5.214844 19.691406 C 5.3125 19.730469 5.382812 19.816406 5.398438 19.917969 C 5.550781 20.78125 5.746094 21.625 5.988281 22.429688 C 6.023438 22.542969 5.984375 22.667969 5.890625 22.746094 C 5.628906 22.960938 5.386719 23.164062 5.164062 23.351562 Z M 7.808594 25.707031 C 7.761719 25.707031 7.714844 25.699219 7.675781 25.675781 C 6.445312 25.066406 5.378906 24.359375 4.511719 23.574219 C 4.449219 23.519531 4.414062 23.4375 4.414062 23.351562 C 4.414062 23.265625 4.449219 23.1875 4.515625 23.128906 C 4.765625 22.90625 5.046875 22.667969 5.359375 22.410156 C 5.183594 21.792969 5.027344 21.152344 4.898438 20.503906 C 4.382812 20.90625 3.871094 21.328125 3.355469 21.78125 C 3.289062 21.839844 3.199219 21.863281 3.113281 21.855469 C 3.027344 21.839844 2.953125 21.792969 2.90625 21.71875 C 2.253906 20.679688 1.925781 19.597656 1.925781 18.5 C 1.925781 13.203125 9.644531 8.894531 19.132812 8.894531 C 26.167969 8.894531 32.421875 11.230469 35.066406 14.84375 C 35.136719 14.941406 35.144531 15.074219 35.078125 15.175781 C 35.011719 15.28125 34.890625 15.332031 34.769531 15.3125 L 28.824219 14.226562 C 28.679688 14.199219 28.519531 14.269531 28.4375 14.402344 C 28.367188 14.511719 28.363281 14.644531 28.421875 14.761719 L 29.652344 17.207031 C 29.6875 17.28125 29.695312 17.363281 29.667969 17.4375 C 29.644531 17.511719 29.589844 17.574219 29.515625 17.609375 C 28.703125 18.011719 27.835938 18.421875 26.945312 18.832031 C 21.023438 21.574219 15.175781 23.785156 10.484375 25.066406 C 9.566406 25.3125 8.6875 25.523438 7.871094 25.703125 C 7.847656 25.707031 7.828125 25.707031 7.808594 25.707031 Z M 12.882812 26.839844 C 14.863281 27.28125 16.960938 27.503906 19.132812 27.503906 C 28.296875 27.503906 35.75 23.464844 35.75 18.5 C 35.75 18.003906 35.671875 17.507812 35.519531 17.015625 L 33.105469 21.929688 C 32.9375 22.265625 32.601562 22.472656 32.230469 22.472656 C 31.863281 22.472656 31.53125 22.269531 31.367188 21.9375 L 30.316406 19.855469 C 29.535156 20.234375 28.742188 20.613281 27.9375 20.984375 C 22.625 23.4375 17.328125 25.496094 12.882812 26.839844 Z M 19.132812 28.101562 C 16.515625 28.101562 14 27.78125 11.65625 27.15625 C 11.527344 27.121094 11.4375 27.003906 11.433594 26.867188 C 11.433594 26.734375 11.523438 26.617188 11.652344 26.578125 C 16.277344 25.265625 21.972656 23.082031 27.6875 20.441406 C 28.578125 20.03125 29.457031 19.609375 30.320312 19.191406 C 30.464844 19.121094 30.644531 19.179688 30.71875 19.328125 L 31.902344 21.671875 C 32.03125 21.933594 32.441406 21.925781 32.570312 21.664062 L 35.285156 16.140625 C 35.335938 16.035156 35.429688 15.96875 35.558594 15.972656 C 35.675781 15.972656 35.777344 16.042969 35.824219 16.148438 C 36.171875 16.914062 36.347656 17.707031 36.347656 18.5 C 36.347656 23.792969 28.625 28.101562 19.132812 28.101562 Z M 19.132812 28.101562 "/><path style=" stroke:none;fill-rule:nonzero;fill:#0000ff;fill-opacity:1;" d="M 26.957031 18.796875 L 2.222656 18.796875 C 2.058594 18.796875 1.925781 18.664062 1.925781 18.496094 C 1.925781 18.332031 2.058594 18.199219 2.222656 18.199219 L 26.957031 18.199219 C 27.125 18.199219 27.257812 18.332031 27.257812 18.496094 C 27.257812 18.664062 27.125 18.796875 26.957031 18.796875 Z M 36.050781 18.796875 L 34.460938 18.796875 C 34.296875 18.796875 34.160156 18.664062 34.160156 18.496094 C 34.160156 18.332031 34.296875 18.199219 34.460938 18.199219 L 36.050781 18.199219 C 36.214844 18.199219 36.347656 18.332031 36.347656 18.496094 C 36.347656 18.664062 36.214844 18.796875 36.050781 18.796875 Z M 36.050781 18.796875 "/><g clip-rule="nonzero" clip-path="url(#d7ae9dea1e)"><path style=" stroke:none;fill-rule:nonzero;fill:#0000ff;fill-opacity:1;" d="M 19.132812 22.140625 C 18.96875 22.140625 18.832031 22.007812 18.832031 21.839844 L 18.832031 1.589844 C 18.832031 1.425781 18.96875 1.289062 19.132812 1.289062 C 19.296875 1.289062 19.429688 1.425781 19.429688 1.589844 L 19.429688 21.839844 C 19.429688 22.007812 19.296875 22.140625 19.132812 22.140625 Z M 19.132812 35.707031 C 18.96875 35.707031 18.832031 35.574219 18.832031 35.40625 L 18.832031 24.378906 C 18.832031 24.210938 18.96875 24.078125 19.132812 24.078125 C 19.296875 24.078125 19.429688 24.210938 19.429688 24.378906 L 19.429688 35.40625 C 19.429688 35.574219 19.296875 35.707031 19.132812 35.707031 Z M 19.132812 35.707031 "/></g><path style=" stroke:none;fill-rule:nonzero;fill:#0000ff;fill-opacity:1;" d="M 4.898438 20.503906 C 3.664062 21.464844 2.691406 22.339844 2.007812 23.113281 C 1.539062 23.628906 0.117188 25.207031 0.777344 26.632812 C 1.1875 27.527344 2.238281 27.980469 3.902344 27.980469 L 4.253906 27.980469 C 5.265625 27.953125 6.492188 27.789062 8.007812 27.484375 C 8.648438 27.355469 9.355469 27.1875 10.175781 26.976562 C 15.097656 25.710938 21.316406 23.390625 27.683594 20.441406 C 28.578125 20.03125 29.457031 19.609375 30.320312 19.191406 C 30.464844 19.121094 30.644531 19.179688 30.71875 19.328125 L 31.902344 21.671875 C 32.03125 21.933594 32.441406 21.925781 32.570312 21.664062 L 35.394531 15.914062 C 35.449219 15.808594 35.449219 15.6875 35.398438 15.585938 C 35.34375 15.476562 35.246094 15.402344 35.128906 15.378906 L 28.820312 14.226562 C 28.679688 14.199219 28.519531 14.269531 28.4375 14.402344 C 28.367188 14.511719 28.363281 14.644531 28.421875 14.761719 L 29.652344 17.210938 C 29.6875 17.28125 29.695312 17.363281 29.667969 17.4375 C 29.644531 17.511719 29.589844 17.574219 29.515625 17.609375 C 28.703125 18.011719 27.835938 18.421875 26.945312 18.832031 C 21.023438 21.574219 15.175781 23.785156 10.484375 25.066406 C 9.101562 25.433594 7.90625 25.707031 6.929688 25.882812 C 5.738281 26.09375 4.722656 26.203125 3.914062 26.203125 C 3.699219 26.203125 3.511719 26.195312 3.347656 26.179688 C 3.0625 26.152344 2.824219 25.984375 2.707031 25.730469 C 2.59375 25.480469 2.625 25.199219 2.785156 24.972656 C 3.109375 24.5 3.824219 23.667969 5.359375 22.410156 C 5.183594 21.792969 5.027344 21.152344 4.898438 20.503906 Z M 4.257812 28.574219 L 3.902344 28.574219 C 1.984375 28.574219 0.75 28.007812 0.234375 26.882812 C -0.589844 25.097656 1.03125 23.304688 1.5625 22.714844 C 2.34375 21.835938 3.472656 20.832031 4.925781 19.734375 C 5.007812 19.667969 5.117188 19.65625 5.214844 19.691406 C 5.308594 19.730469 5.378906 19.816406 5.398438 19.917969 C 5.550781 20.78125 5.746094 21.625 5.988281 22.429688 C 6.023438 22.546875 5.984375 22.671875 5.890625 22.746094 C 4.300781 24.03125 3.59375 24.851562 3.273438 25.316406 C 3.222656 25.390625 3.238281 25.453125 3.253906 25.484375 C 3.265625 25.511719 3.304688 25.578125 3.402344 25.585938 C 3.546875 25.597656 3.71875 25.605469 3.914062 25.605469 C 4.6875 25.605469 5.667969 25.5 6.828125 25.292969 C 7.785156 25.125 8.964844 24.851562 10.328125 24.488281 C 14.988281 23.21875 20.800781 21.019531 26.695312 18.289062 C 27.484375 17.925781 28.253906 17.5625 28.984375 17.207031 L 27.886719 15.03125 C 27.738281 14.726562 27.753906 14.375 27.929688 14.089844 C 28.140625 13.75 28.519531 13.566406 28.925781 13.640625 L 35.234375 14.792969 C 35.542969 14.851562 35.796875 15.042969 35.933594 15.320312 C 36.066406 15.589844 36.066406 15.90625 35.929688 16.175781 L 33.105469 21.929688 C 32.9375 22.265625 32.601562 22.472656 32.230469 22.472656 C 31.863281 22.472656 31.53125 22.269531 31.367188 21.9375 L 30.316406 19.859375 C 29.535156 20.234375 28.742188 20.613281 27.933594 20.984375 C 21.535156 23.945312 15.28125 26.28125 10.324219 27.558594 C 9.492188 27.769531 8.777344 27.9375 8.128906 28.066406 C 6.574219 28.382812 5.3125 28.546875 4.265625 28.574219 C 4.261719 28.574219 4.261719 28.574219 4.257812 28.574219 Z M 4.257812 28.574219 "/></g></svg>