<svg xmlns="http://www.w3.org/2000/svg" xmlns:xlink="http://www.w3.org/1999/xlink" width="50" zoomAndPan="magnify" viewBox="0 0 37.5 37.499999" height="50" preserveAspectRatio="xMidYMid meet" version="1.2"><defs><clipPath id="143efb7095"><path d="M 8.765625 6 L 28 6 L 28 31 L 8.765625 31 Z M 8.765625 6 "/></clipPath><clipPath id="744680d840"><path d="M 13 3.699219 L 24 3.699219 L 24 8 L 13 8 Z M 13 3.699219 "/></clipPath></defs><g id="f3f15f6026"><g clip-rule="nonzero" clip-path="url(#143efb7095)"><path style=" stroke:none;fill-rule:nonzero;fill:#0000ff;fill-opacity:1;" d="M 26.574219 30.476562 L 10.160156 30.476562 C 9.390625 30.476562 8.765625 29.851562 8.765625 29.082031 L 8.765625 7.976562 C 8.765625 7.210938 9.390625 6.585938 10.160156 6.585938 L 13.59375 6.585938 C 13.714844 6.585938 13.816406 6.683594 13.816406 6.804688 C 13.816406 6.925781 13.816406 7.527344 13.59375 7.527344 L 10.160156 7.527344 C 9.632812 7.527344 9.605469 7.453125 9.605469 7.976562 L 9.605469 29.082031 C 9.605469 29.609375 9.632812 30.035156 10.160156 30.035156 L 26.574219 30.035156 C 27.097656 30.035156 27.175781 29.609375 27.175781 29.082031 L 27.175781 7.976562 C 27.175781 7.453125 27.097656 7.023438 26.574219 7.023438 L 22.988281 7.023438 C 22.867188 7.023438 22.769531 6.925781 22.769531 6.804688 C 22.769531 6.683594 22.867188 6.585938 22.988281 6.585938 L 26.574219 6.585938 C 27.339844 6.585938 27.964844 7.210938 27.964844 7.976562 L 27.964844 29.082031 C 27.964844 29.851562 27.339844 30.476562 26.574219 30.476562 Z M 26.574219 30.476562 "/></g><path style=" stroke:none;fill-rule:nonzero;fill:#0000ff;fill-opacity:1;" d="M 14.855469 11.597656 C 12.789062 11.710938 11.140625 13.425781 11.140625 15.519531 C 11.140625 17.460938 12.589844 19.132812 14.507812 19.414062 C 14.679688 19.441406 14.871094 19.453125 15.074219 19.453125 C 17.167969 19.453125 18.882812 17.808594 18.996094 15.742188 L 15.074219 15.742188 C 14.953125 15.742188 14.855469 15.640625 14.855469 15.519531 Z M 15.074219 19.894531 C 14.847656 19.894531 14.636719 19.878906 14.441406 19.847656 C 12.308594 19.535156 10.699219 17.675781 10.699219 15.519531 C 10.699219 13.109375 12.664062 11.152344 15.074219 11.152344 C 15.195312 11.152344 15.292969 11.25 15.292969 11.371094 L 15.292969 15.300781 L 19.222656 15.300781 C 19.34375 15.300781 19.445312 15.398438 19.445312 15.519531 C 19.445312 17.929688 17.484375 19.894531 15.074219 19.894531 Z M 15.074219 19.894531 "/><path style=" stroke:none;fill-rule:nonzero;fill:#0000ff;fill-opacity:1;" d="M 16.296875 14.578125 L 19.226562 14.578125 C 19.644531 12.488281 17.972656 11.652344 16.296875 11.234375 Z M 19.914062 15.050781 L 15.765625 15.050781 C 15.644531 15.050781 15.546875 14.953125 15.546875 14.832031 L 15.546875 10.679688 C 15.546875 10.558594 15.644531 10.457031 15.765625 10.457031 C 18.175781 10.457031 20.136719 12.421875 20.136719 14.832031 C 20.136719 14.953125 20.039062 15.050781 19.914062 15.050781 Z M 19.914062 15.050781 "/><g clip-rule="nonzero" clip-path="url(#744680d840)"><path style=" stroke:none;fill-rule:nonzero;fill:#0000ff;fill-opacity:1;" d="M 13.839844 7.5 L 22.738281 7.5 L 22.738281 6.324219 C 22.738281 5.933594 22.535156 5.65625 22.355469 5.65625 L 20.597656 5.65625 C 20.515625 5.65625 20.441406 5.613281 20.402344 5.539062 C 19.945312 4.664062 19.15625 4.144531 18.292969 4.144531 C 17.425781 4.144531 16.636719 4.664062 16.179688 5.539062 C 16.140625 5.613281 16.066406 5.65625 15.984375 5.65625 L 14.226562 5.65625 C 14.042969 5.65625 13.839844 5.933594 13.839844 6.324219 Z M 22.957031 7.9375 L 13.621094 7.9375 C 13.5 7.9375 13.402344 7.839844 13.402344 7.71875 L 13.402344 6.324219 C 13.402344 5.703125 13.761719 5.21875 14.226562 5.21875 L 15.855469 5.21875 C 16.398438 4.265625 17.300781 3.703125 18.292969 3.703125 C 19.28125 3.703125 20.183594 4.265625 20.726562 5.21875 L 22.355469 5.21875 C 22.816406 5.21875 23.175781 5.703125 23.175781 6.324219 L 23.175781 7.71875 C 23.175781 7.839844 23.078125 7.9375 22.957031 7.9375 Z M 22.957031 7.9375 "/></g><path style=" stroke:none;fill-rule:nonzero;fill:#0000ff;fill-opacity:1;" d="M 18.292969 5.304688 C 18.125 5.304688 17.992188 5.4375 17.992188 5.601562 C 17.992188 5.769531 18.125 5.902344 18.292969 5.902344 C 18.457031 5.902344 18.589844 5.769531 18.589844 5.601562 C 18.589844 5.4375 18.457031 5.304688 18.292969 5.304688 Z M 18.292969 6.34375 C 17.882812 6.34375 17.550781 6.011719 17.550781 5.601562 C 17.550781 5.195312 17.882812 4.863281 18.292969 4.863281 C 18.699219 4.863281 19.03125 5.195312 19.03125 5.601562 C 19.03125 6.011719 18.699219 6.34375 18.292969 6.34375 Z M 18.292969 6.34375 "/><path style=" stroke:none;fill-rule:nonzero;fill:#0000ff;fill-opacity:1;" d="M 10.25 29.4375 L 26.015625 29.4375 L 26.015625 29.070312 C 26.015625 28.867188 25.847656 28.703125 25.644531 28.703125 L 24.460938 28.703125 C 24.355469 28.703125 24.265625 28.628906 24.246094 28.523438 C 24.101562 27.800781 23.835938 27.113281 23.449219 26.484375 C 23.394531 26.398438 23.410156 26.285156 23.480469 26.214844 L 24.28125 25.414062 C 24.425781 25.269531 24.425781 25.03125 24.28125 24.890625 L 23.128906 23.734375 C 22.992188 23.597656 22.746094 23.597656 22.605469 23.734375 L 21.84375 24.5 C 21.769531 24.574219 21.652344 24.585938 21.566406 24.53125 C 20.929688 24.113281 20.234375 23.816406 19.488281 23.648438 C 19.390625 23.625 19.320312 23.535156 19.320312 23.433594 L 19.320312 22.375 C 19.320312 22.171875 19.152344 22.003906 18.945312 22.003906 L 17.316406 22.003906 C 17.113281 22.003906 16.949219 22.171875 16.949219 22.375 L 16.949219 23.433594 C 16.949219 23.535156 16.878906 23.625 16.777344 23.648438 C 16.027344 23.816406 15.332031 24.113281 14.699219 24.527344 C 14.613281 24.585938 14.496094 24.574219 14.425781 24.5 L 13.65625 23.734375 C 13.519531 23.597656 13.273438 23.597656 13.136719 23.734375 L 11.980469 24.890625 C 11.839844 25.03125 11.839844 25.269531 11.980469 25.414062 L 12.78125 26.214844 C 12.855469 26.285156 12.867188 26.398438 12.8125 26.484375 C 12.425781 27.117188 12.160156 27.804688 12.015625 28.527344 C 11.996094 28.628906 11.90625 28.703125 11.800781 28.703125 L 10.617188 28.703125 C 10.414062 28.703125 10.25 28.867188 10.25 29.070312 Z M 26.234375 29.878906 L 10.03125 29.878906 C 9.910156 29.878906 9.8125 29.78125 9.8125 29.660156 L 9.8125 29.070312 C 9.8125 28.625 10.171875 28.261719 10.617188 28.261719 L 11.621094 28.261719 C 11.769531 27.613281 12.015625 26.988281 12.351562 26.40625 L 11.667969 25.722656 C 11.355469 25.410156 11.355469 24.894531 11.667969 24.582031 L 12.824219 23.421875 C 13.128906 23.121094 13.664062 23.121094 13.96875 23.421875 L 14.609375 24.066406 C 15.195312 23.699219 15.832031 23.429688 16.507812 23.257812 L 16.507812 22.375 C 16.507812 21.929688 16.871094 21.566406 17.316406 21.566406 L 18.945312 21.566406 C 19.394531 21.566406 19.757812 21.929688 19.757812 22.375 L 19.757812 23.257812 C 20.429688 23.429688 21.066406 23.699219 21.65625 24.066406 L 22.296875 23.421875 C 22.601562 23.121094 23.132812 23.121094 23.441406 23.421875 L 24.59375 24.582031 C 24.910156 24.894531 24.910156 25.410156 24.59375 25.722656 L 23.914062 26.40625 C 24.25 26.984375 24.492188 27.605469 24.640625 28.261719 L 25.644531 28.261719 C 26.089844 28.261719 26.457031 28.625 26.457031 29.070312 L 26.457031 29.660156 C 26.457031 29.78125 26.355469 29.878906 26.234375 29.878906 Z M 26.234375 29.878906 "/><path style=" stroke:none;fill-rule:nonzero;fill:#0000ff;fill-opacity:1;" d="M 15.113281 29.4375 L 21.148438 29.4375 C 20.933594 27.960938 19.648438 26.835938 18.132812 26.835938 C 16.613281 26.835938 15.332031 27.960938 15.113281 29.4375 Z M 21.402344 29.878906 C 21.398438 29.878906 21.394531 29.878906 21.394531 29.878906 L 14.867188 29.878906 C 14.808594 29.878906 14.75 29.855469 14.707031 29.808594 C 14.667969 29.765625 14.644531 29.703125 14.648438 29.644531 C 14.777344 27.824219 16.304688 26.398438 18.132812 26.398438 C 19.941406 26.398438 21.457031 27.792969 21.609375 29.589844 C 21.617188 29.609375 21.621094 29.632812 21.621094 29.660156 C 21.621094 29.78125 21.523438 29.878906 21.402344 29.878906 Z M 21.402344 29.878906 "/><path style=" stroke:none;fill-rule:nonzero;fill:#0000ff;fill-opacity:1;" d="M 25.566406 19.894531 L 15.074219 19.894531 C 14.953125 19.894531 14.855469 19.792969 14.855469 19.671875 C 14.855469 19.550781 14.953125 19.453125 15.074219 19.453125 L 25.566406 19.453125 C 25.6875 19.453125 25.785156 19.550781 25.785156 19.671875 C 25.785156 19.792969 25.6875 19.894531 25.566406 19.894531 Z M 25.566406 19.894531 "/><path style=" stroke:none;fill-rule:nonzero;fill:#0000ff;fill-opacity:1;" d="M 21.277344 19.910156 C 21.15625 19.910156 21.058594 19.8125 21.058594 19.691406 L 21.058594 16.09375 C 21.058594 15.972656 21.195312 15.835938 21.316406 15.835938 C 21.316406 15.835938 21.734375 15.972656 21.734375 16.09375 L 21.734375 19.691406 C 21.734375 19.8125 21.398438 19.910156 21.277344 19.910156 Z M 21.277344 19.910156 "/><path style=" stroke:none;fill-rule:nonzero;fill:#0000ff;fill-opacity:1;" d="M 23.402344 19.957031 C 23.28125 19.957031 23.183594 19.855469 23.183594 19.734375 L 23.183594 13.757812 C 23.183594 13.632812 23.28125 13.535156 23.402344 13.535156 C 23.523438 13.535156 23.621094 13.632812 23.621094 13.757812 L 23.621094 19.734375 C 23.621094 19.855469 23.523438 19.957031 23.402344 19.957031 Z M 23.402344 19.957031 "/><path style=" stroke:none;fill-rule:nonzero;fill:#0000ff;fill-opacity:1;" d="M 25.101562 19.9375 C 24.980469 19.9375 24.882812 19.839844 24.882812 19.71875 L 24.882812 14.710938 C 24.882812 14.589844 24.980469 14.492188 25.101562 14.492188 C 25.222656 14.492188 25.320312 14.589844 25.320312 14.710938 L 25.320312 19.71875 C 25.320312 19.839844 25.222656 19.9375 25.101562 19.9375 Z M 25.101562 19.9375 "/></g></svg>