<svg xmlns="http://www.w3.org/2000/svg" xmlns:xlink="http://www.w3.org/1999/xlink" width="50" zoomAndPan="magnify" viewBox="0 0 37.5 37.499999" height="50" preserveAspectRatio="xMidYMid meet" version="1.2"><defs><clipPath id="0de5e1b12d"><path d="M 15 27 L 25 27 L 25 35.871094 L 15 35.871094 Z M 15 27 "/></clipPath><clipPath id="09376ff615"><path d="M 19 1.085938 L 21 1.085938 L 21 4 L 19 4 Z M 19 1.085938 "/></clipPath><clipPath id="faf8f4a015"><path d="M 4.441406 16 L 7 16 L 7 17 L 4.441406 17 Z M 4.441406 16 "/></clipPath></defs><g id="dd0d4d83ad"><g clip-rule="nonzero" clip-path="url(#0de5e1b12d)"><path style=" stroke:none;fill-rule:nonzero;fill:#0000ff;fill-opacity:1;" d="M 15.707031 28.335938 L 15.707031 31.816406 C 15.707031 33.738281 17.269531 35.300781 19.1875 35.300781 L 20.5625 35.300781 C 22.484375 35.300781 24.046875 33.738281 24.046875 31.816406 L 24.046875 28.335938 Z M 20.5625 35.871094 L 19.1875 35.871094 C 16.953125 35.871094 15.132812 34.050781 15.132812 31.816406 L 15.132812 28.050781 C 15.132812 27.890625 15.261719 27.765625 15.421875 27.765625 L 24.332031 27.765625 C 24.488281 27.765625 24.617188 27.890625 24.617188 28.050781 L 24.617188 31.816406 C 24.617188 34.050781 22.796875 35.871094 20.5625 35.871094 Z M 20.5625 35.871094 "/></g><path style=" stroke:none;fill-rule:nonzero;fill:#0000ff;fill-opacity:1;" d="M 15.652344 27.765625 L 24.097656 27.765625 C 24.457031 26.15625 25.453125 24.515625 26.914062 23.109375 C 29.308594 20.832031 30.472656 17.628906 30.113281 14.324219 C 29.574219 9.464844 25.652344 5.542969 20.789062 5.003906 C 20.644531 5.003906 20.480469 4.988281 20.320312 4.976562 C 20.175781 4.960938 20.03125 4.949219 19.875 4.949219 C 19.546875 4.949219 19.285156 4.949219 18.976562 5 C 14.101562 5.542969 10.179688 9.464844 9.632812 14.328125 C 9.273438 17.628906 10.4375 20.828125 12.835938 23.109375 C 14.296875 24.515625 15.292969 26.15625 15.652344 27.765625 Z M 24.332031 28.335938 L 15.421875 28.335938 C 15.28125 28.335938 15.164062 28.238281 15.140625 28.101562 C 14.847656 26.539062 13.886719 24.910156 12.441406 23.519531 C 9.914062 21.117188 8.683594 17.746094 9.066406 14.265625 C 9.644531 9.136719 13.777344 5.003906 18.894531 4.433594 C 19.238281 4.375 19.53125 4.375 19.875 4.375 C 20.050781 4.375 20.210938 4.390625 20.375 4.40625 C 20.519531 4.417969 20.660156 4.433594 20.820312 4.433594 C 25.980469 5.003906 30.113281 9.140625 30.679688 14.261719 C 31.0625 17.746094 29.832031 21.121094 27.308594 23.523438 C 25.863281 24.910156 24.902344 26.539062 24.609375 28.101562 C 24.585938 28.238281 24.46875 28.335938 24.332031 28.335938 Z M 24.332031 28.335938 "/><path style=" stroke:none;fill-rule:nonzero;fill:#0000ff;fill-opacity:1;" d="M 25.398438 30.21875 L 14.351562 30.21875 C 14.191406 30.21875 14.066406 30.089844 14.066406 29.929688 C 14.066406 29.773438 14.191406 29.644531 14.351562 29.644531 L 25.398438 29.644531 C 25.558594 29.644531 25.683594 29.773438 25.683594 29.929688 C 25.683594 30.089844 25.558594 30.21875 25.398438 30.21875 Z M 25.398438 30.21875 "/><path style=" stroke:none;fill-rule:nonzero;fill:#0000ff;fill-opacity:1;" d="M 25.398438 32.136719 L 14.351562 32.136719 C 14.191406 32.136719 14.066406 32.007812 14.066406 31.851562 C 14.066406 31.691406 14.191406 31.566406 14.351562 31.566406 L 25.398438 31.566406 C 25.558594 31.566406 25.683594 31.691406 25.683594 31.851562 C 25.683594 32.007812 25.558594 32.136719 25.398438 32.136719 Z M 25.398438 32.136719 "/><path style=" stroke:none;fill-rule:nonzero;fill:#0000ff;fill-opacity:1;" d="M 25.398438 34.054688 L 14.351562 34.054688 C 14.191406 34.054688 14.066406 33.925781 14.066406 33.765625 C 14.066406 33.609375 14.191406 33.480469 14.351562 33.480469 L 25.398438 33.480469 C 25.558594 33.480469 25.683594 33.609375 25.683594 33.765625 C 25.683594 33.925781 25.558594 34.054688 25.398438 34.054688 Z M 25.398438 34.054688 "/><path style=" stroke:none;fill-rule:nonzero;fill:#0000ff;fill-opacity:1;" d="M 16.949219 18.59375 C 17 18.59375 17.050781 18.609375 17.097656 18.636719 C 17.601562 18.941406 18.144531 19.160156 18.714844 19.289062 C 18.84375 19.320312 18.9375 19.433594 18.9375 19.566406 L 18.9375 20.765625 C 18.9375 20.886719 19.039062 20.992188 19.164062 20.992188 L 20.582031 20.992188 C 20.707031 20.992188 20.808594 20.890625 20.808594 20.765625 L 20.808594 19.566406 C 20.808594 19.433594 20.902344 19.316406 21.035156 19.289062 C 21.59375 19.167969 22.136719 18.945312 22.652344 18.636719 C 22.765625 18.566406 22.910156 18.585938 23.003906 18.679688 L 23.832031 19.511719 C 23.917969 19.59375 24.070312 19.597656 24.15625 19.511719 L 25.15625 18.507812 C 25.203125 18.464844 25.226562 18.40625 25.226562 18.347656 C 25.226562 18.289062 25.203125 18.230469 25.160156 18.191406 L 24.355469 17.382812 C 24.257812 17.285156 24.246094 17.136719 24.320312 17.023438 C 24.652344 16.519531 24.894531 15.96875 25.042969 15.382812 C 25.074219 15.253906 25.1875 15.164062 25.320312 15.164062 L 26.414062 15.164062 C 26.535156 15.164062 26.636719 15.0625 26.636719 14.9375 L 26.636719 13.519531 C 26.636719 13.390625 26.539062 13.292969 26.414062 13.292969 L 25.378906 13.292969 C 25.242188 13.292969 25.125 13.195312 25.101562 13.0625 C 24.976562 12.4375 24.75 11.851562 24.421875 11.316406 C 24.351562 11.203125 24.367188 11.058594 24.460938 10.964844 L 25.15625 10.265625 C 25.203125 10.222656 25.226562 10.167969 25.226562 10.109375 C 25.226562 10.046875 25.203125 9.988281 25.160156 9.945312 L 24.15625 8.941406 C 24.074219 8.859375 23.917969 8.859375 23.828125 8.945312 L 23.167969 9.605469 C 23.074219 9.703125 22.921875 9.71875 22.808594 9.644531 C 22.265625 9.285156 21.667969 9.03125 21.035156 8.890625 C 20.902344 8.863281 20.808594 8.746094 20.808594 8.613281 L 20.808594 7.6875 C 20.808594 7.5625 20.707031 7.460938 20.582031 7.460938 L 19.164062 7.460938 C 19.039062 7.460938 18.9375 7.566406 18.9375 7.6875 L 18.9375 8.613281 C 18.9375 8.746094 18.84375 8.863281 18.714844 8.890625 C 18.082031 9.03125 17.484375 9.285156 16.941406 9.644531 C 16.828125 9.71875 16.675781 9.703125 16.582031 9.609375 L 15.914062 8.941406 C 15.832031 8.859375 15.675781 8.859375 15.589844 8.941406 L 14.589844 9.945312 C 14.546875 9.988281 14.523438 10.046875 14.523438 10.109375 C 14.523438 10.167969 14.546875 10.222656 14.585938 10.261719 L 15.289062 10.964844 C 15.382812 11.058594 15.398438 11.203125 15.332031 11.316406 C 14.996094 11.859375 14.765625 12.445312 14.648438 13.0625 C 14.621094 13.195312 14.503906 13.292969 14.367188 13.292969 L 13.335938 13.292969 C 13.210938 13.292969 13.109375 13.394531 13.109375 13.519531 L 13.109375 14.9375 C 13.109375 15.0625 13.214844 15.164062 13.335938 15.164062 L 14.425781 15.164062 C 14.558594 15.164062 14.671875 15.253906 14.703125 15.378906 C 14.855469 15.96875 15.097656 16.523438 15.429688 17.023438 C 15.503906 17.136719 15.492188 17.285156 15.394531 17.382812 L 14.589844 18.1875 C 14.546875 18.230469 14.523438 18.289062 14.523438 18.347656 C 14.523438 18.410156 14.546875 18.464844 14.589844 18.507812 L 15.59375 19.511719 C 15.679688 19.597656 15.828125 19.597656 15.914062 19.511719 L 16.746094 18.679688 C 16.804688 18.625 16.875 18.59375 16.949219 18.59375 Z M 20.582031 21.5625 L 19.164062 21.5625 C 18.722656 21.5625 18.367188 21.207031 18.367188 20.765625 L 18.367188 19.792969 C 17.886719 19.664062 17.429688 19.480469 16.996094 19.238281 L 16.316406 19.917969 C 16.019531 20.21875 15.492188 20.21875 15.1875 19.917969 L 14.183594 18.910156 C 14.035156 18.761719 13.953125 18.5625 13.953125 18.347656 C 13.953125 18.132812 14.035156 17.933594 14.1875 17.785156 L 14.828125 17.140625 C 14.5625 16.703125 14.355469 16.230469 14.210938 15.738281 L 13.335938 15.738281 C 12.898438 15.738281 12.539062 15.378906 12.539062 14.9375 L 12.539062 13.519531 C 12.539062 13.078125 12.898438 12.71875 13.335938 12.71875 L 14.136719 12.71875 C 14.261719 12.195312 14.460938 11.6875 14.730469 11.210938 L 14.183594 10.667969 C 14.035156 10.523438 13.953125 10.328125 13.953125 10.113281 C 13.949219 9.894531 14.03125 9.691406 14.183594 9.539062 L 15.1875 8.535156 C 15.496094 8.238281 16.015625 8.238281 16.316406 8.535156 L 16.824219 9.042969 C 17.304688 8.75 17.824219 8.53125 18.367188 8.386719 L 18.367188 7.6875 C 18.367188 7.25 18.722656 6.890625 19.164062 6.890625 L 20.582031 6.890625 C 21.023438 6.890625 21.382812 7.25 21.382812 7.6875 L 21.382812 8.386719 C 21.925781 8.53125 22.441406 8.75 22.925781 9.042969 L 23.429688 8.535156 C 23.742188 8.234375 24.257812 8.242188 24.558594 8.535156 L 25.5625 9.539062 C 25.714844 9.691406 25.800781 9.894531 25.796875 10.113281 C 25.796875 10.328125 25.710938 10.527344 25.558594 10.671875 L 25.019531 11.210938 C 25.285156 11.683594 25.484375 12.191406 25.609375 12.71875 L 26.414062 12.71875 C 26.851562 12.71875 27.207031 13.078125 27.207031 13.519531 L 27.207031 14.9375 C 27.207031 15.378906 26.851562 15.738281 26.414062 15.738281 L 25.539062 15.738281 C 25.394531 16.230469 25.1875 16.703125 24.921875 17.140625 L 25.5625 17.785156 C 25.714844 17.933594 25.796875 18.132812 25.796875 18.347656 C 25.796875 18.5625 25.710938 18.765625 25.558594 18.914062 L 24.5625 19.914062 C 24.257812 20.21875 23.734375 20.21875 23.429688 19.917969 L 22.753906 19.238281 C 22.3125 19.484375 21.851562 19.667969 21.382812 19.792969 L 21.382812 20.765625 C 21.382812 21.207031 21.023438 21.5625 20.582031 21.5625 Z M 20.582031 21.5625 "/><path style=" stroke:none;fill-rule:nonzero;fill:#0000ff;fill-opacity:1;" d="M 19.875 11.667969 C 18.464844 11.667969 17.316406 12.816406 17.316406 14.226562 C 17.316406 15.640625 18.464844 16.789062 19.875 16.789062 C 21.285156 16.789062 22.433594 15.640625 22.433594 14.226562 C 22.433594 12.816406 21.285156 11.667969 19.875 11.667969 Z M 19.875 17.359375 C 18.148438 17.359375 16.746094 15.953125 16.746094 14.226562 C 16.746094 12.5 18.148438 11.097656 19.875 11.097656 C 21.601562 11.097656 23.003906 12.5 23.003906 14.226562 C 23.003906 15.953125 21.601562 17.359375 19.875 17.359375 Z M 19.875 17.359375 "/><path style=" stroke:none;fill-rule:nonzero;fill:#0000ff;fill-opacity:1;" d="M 19.402344 28.339844 C 19.363281 28.339844 19.324219 28.332031 19.285156 28.3125 C 19.21875 28.285156 19.167969 28.234375 19.140625 28.171875 L 16.472656 23.753906 C 16.390625 23.621094 16.433594 23.445312 16.570312 23.363281 C 16.707031 23.28125 16.882812 23.324219 16.960938 23.460938 L 19.332031 27.382812 L 20.480469 23.527344 C 20.523438 23.375 20.683594 23.289062 20.835938 23.332031 C 20.988281 23.378906 21.074219 23.539062 21.027344 23.6875 L 19.746094 27.984375 L 19.664062 28.175781 C 19.613281 28.277344 19.511719 28.339844 19.402344 28.339844 Z M 19.402344 28.339844 "/><path style=" stroke:none;fill-rule:nonzero;fill:#0000ff;fill-opacity:1;" d="M 18.566406 23.375 C 18.296875 23.375 17.996094 23.289062 17.671875 23.035156 C 17.164062 22.636719 16.625 22.832031 16.074219 23.089844 C 15.871094 23.183594 15.726562 23.25 15.582031 23.25 C 15.425781 23.25 15.296875 23.125 15.296875 22.964844 C 15.296875 22.8125 15.421875 22.683594 15.574219 22.679688 C 15.617188 22.671875 15.742188 22.613281 15.835938 22.570312 C 16.3125 22.351562 17.199219 21.9375 18.023438 22.585938 C 18.503906 22.960938 18.828125 22.789062 19.234375 22.570312 C 19.460938 22.453125 19.695312 22.328125 19.953125 22.316406 C 20.585938 22.289062 21.71875 22.753906 21.84375 22.808594 C 21.992188 22.871094 22.058594 23.039062 22 23.183594 C 21.9375 23.328125 21.769531 23.398438 21.625 23.335938 C 21.3125 23.203125 20.410156 22.859375 19.980469 22.886719 C 19.847656 22.894531 19.679688 22.980469 19.503906 23.078125 C 19.257812 23.207031 18.941406 23.375 18.566406 23.375 Z M 18.566406 23.375 "/><g clip-rule="nonzero" clip-path="url(#09376ff615)"><path style=" stroke:none;fill-rule:nonzero;fill:#0000ff;fill-opacity:1;" d="M 19.875 3.511719 C 19.71875 3.511719 19.589844 3.382812 19.589844 3.226562 L 19.589844 1.371094 C 19.589844 1.210938 19.71875 1.085938 19.875 1.085938 C 20.03125 1.085938 20.160156 1.210938 20.160156 1.371094 L 20.160156 3.226562 C 20.160156 3.382812 20.03125 3.511719 19.875 3.511719 Z M 19.875 3.511719 "/></g><path style=" stroke:none;fill-rule:nonzero;fill:#0000ff;fill-opacity:1;" d="M 26.519531 5.292969 C 26.46875 5.292969 26.421875 5.28125 26.375 5.253906 C 26.238281 5.175781 26.191406 5 26.269531 4.863281 L 27.199219 3.257812 C 27.277344 3.121094 27.453125 3.074219 27.589844 3.152344 C 27.726562 3.230469 27.773438 3.40625 27.695312 3.542969 L 26.765625 5.148438 C 26.714844 5.242188 26.617188 5.292969 26.519531 5.292969 Z M 26.519531 5.292969 "/><path style=" stroke:none;fill-rule:nonzero;fill:#0000ff;fill-opacity:1;" d="M 31.382812 10.15625 C 31.28125 10.15625 31.1875 10.105469 31.132812 10.011719 C 31.054688 9.875 31.101562 9.699219 31.238281 9.621094 L 32.84375 8.695312 C 32.980469 8.617188 33.15625 8.664062 33.234375 8.800781 C 33.3125 8.9375 33.265625 9.109375 33.128906 9.1875 L 31.523438 10.117188 C 31.476562 10.144531 31.429688 10.15625 31.382812 10.15625 Z M 31.382812 10.15625 "/><path style=" stroke:none;fill-rule:nonzero;fill:#0000ff;fill-opacity:1;" d="M 35.019531 16.796875 L 33.164062 16.796875 C 33.003906 16.796875 32.878906 16.671875 32.878906 16.511719 C 32.878906 16.355469 33.003906 16.226562 33.164062 16.226562 L 35.019531 16.226562 C 35.175781 16.226562 35.304688 16.355469 35.304688 16.511719 C 35.304688 16.671875 35.175781 16.796875 35.019531 16.796875 Z M 35.019531 16.796875 "/><path style=" stroke:none;fill-rule:nonzero;fill:#0000ff;fill-opacity:1;" d="M 32.988281 24.375 C 32.9375 24.375 32.890625 24.363281 32.84375 24.335938 L 31.238281 23.410156 C 31.101562 23.328125 31.054688 23.15625 31.132812 23.019531 C 31.210938 22.882812 31.386719 22.835938 31.523438 22.914062 L 33.128906 23.839844 C 33.265625 23.917969 33.3125 24.09375 33.234375 24.230469 C 33.183594 24.324219 33.085938 24.375 32.988281 24.375 Z M 32.988281 24.375 "/><path style=" stroke:none;fill-rule:nonzero;fill:#0000ff;fill-opacity:1;" d="M 6.757812 24.375 C 6.660156 24.375 6.5625 24.324219 6.511719 24.230469 C 6.433594 24.09375 6.480469 23.917969 6.617188 23.839844 L 8.222656 22.914062 C 8.359375 22.835938 8.535156 22.882812 8.613281 23.019531 C 8.691406 23.15625 8.644531 23.328125 8.507812 23.410156 L 6.902344 24.335938 C 6.855469 24.363281 6.808594 24.375 6.757812 24.375 Z M 6.757812 24.375 "/><g clip-rule="nonzero" clip-path="url(#faf8f4a015)"><path style=" stroke:none;fill-rule:nonzero;fill:#0000ff;fill-opacity:1;" d="M 6.585938 16.796875 L 4.730469 16.796875 C 4.570312 16.796875 4.441406 16.671875 4.441406 16.511719 C 4.441406 16.355469 4.570312 16.226562 4.730469 16.226562 L 6.585938 16.226562 C 6.746094 16.226562 6.875 16.355469 6.875 16.511719 C 6.875 16.671875 6.746094 16.796875 6.585938 16.796875 Z M 6.585938 16.796875 "/></g><path style=" stroke:none;fill-rule:nonzero;fill:#0000ff;fill-opacity:1;" d="M 8.367188 10.15625 C 8.316406 10.15625 8.269531 10.144531 8.222656 10.117188 L 6.617188 9.1875 C 6.480469 9.109375 6.433594 8.9375 6.511719 8.800781 C 6.589844 8.664062 6.765625 8.617188 6.902344 8.695312 L 8.507812 9.621094 C 8.644531 9.699219 8.691406 9.875 8.613281 10.011719 C 8.558594 10.105469 8.464844 10.15625 8.367188 10.15625 Z M 8.367188 10.15625 "/><path style=" stroke:none;fill-rule:nonzero;fill:#0000ff;fill-opacity:1;" d="M 13.230469 5.292969 C 13.132812 5.292969 13.035156 5.242188 12.984375 5.148438 L 12.054688 3.542969 C 11.976562 3.40625 12.023438 3.230469 12.160156 3.152344 C 12.296875 3.074219 12.472656 3.121094 12.550781 3.257812 L 13.480469 4.863281 C 13.558594 5 13.511719 5.175781 13.375 5.253906 C 13.328125 5.28125 13.28125 5.292969 13.230469 5.292969 Z M 13.230469 5.292969 "/></g></svg>