<svg xmlns="http://www.w3.org/2000/svg" xmlns:xlink="http://www.w3.org/1999/xlink" width="50" zoomAndPan="magnify" viewBox="0 0 37.5 37.499999" height="50" preserveAspectRatio="xMidYMid meet" version="1.2"><defs><clipPath id="c1ddfca3d9"><path d="M 0 2 L 37.007812 2 L 37.007812 6 L 0 6 Z M 0 2 "/></clipPath><clipPath id="d726cd2799"><path d="M 17 1.226562 L 20 1.226562 L 20 4 L 17 4 Z M 17 1.226562 "/></clipPath></defs><g id="aa960a68a4"><path style=" stroke:none;fill-rule:nonzero;fill:#0000ff;fill-opacity:1;" d="M 12.605469 30.25 L 24.488281 30.25 L 24.089844 29.148438 L 13.003906 29.148438 Z M 24.929688 30.859375 C 24.925781 30.859375 24.925781 30.859375 24.921875 30.859375 L 12.171875 30.859375 C 12.074219 30.859375 11.980469 30.808594 11.921875 30.730469 C 11.867188 30.648438 11.851562 30.542969 11.886719 30.449219 L 12.5 28.742188 C 12.546875 28.621094 12.660156 28.539062 12.789062 28.539062 L 24.304688 28.539062 C 24.433594 28.539062 24.546875 28.621094 24.59375 28.742188 L 25.183594 30.382812 C 25.214844 30.433594 25.234375 30.492188 25.234375 30.554688 C 25.234375 30.722656 25.097656 30.859375 24.929688 30.859375 Z M 24.929688 30.859375 "/><path style=" stroke:none;fill-rule:nonzero;fill:#0000ff;fill-opacity:1;" d="M 26.824219 34.929688 L 27.941406 34.929688 L 24.648438 25.734375 L 23.503906 25.734375 Z M 28.375 35.539062 L 26.609375 35.539062 C 26.480469 35.539062 26.367188 35.457031 26.324219 35.335938 L 22.78125 25.53125 C 22.75 25.441406 22.761719 25.335938 22.820312 25.253906 C 22.878906 25.171875 22.96875 25.125 23.070312 25.125 L 24.863281 25.125 C 24.992188 25.125 25.105469 25.207031 25.148438 25.328125 L 28.660156 35.128906 C 28.695312 35.222656 28.679688 35.328125 28.621094 35.410156 C 28.566406 35.488281 28.472656 35.539062 28.375 35.539062 Z M 28.375 35.539062 "/><path style=" stroke:none;fill-rule:nonzero;fill:#0000ff;fill-opacity:1;" d="M 9.152344 34.929688 L 10.269531 34.929688 L 13.589844 25.734375 L 12.445312 25.734375 Z M 10.484375 35.539062 L 8.71875 35.539062 C 8.621094 35.539062 8.527344 35.488281 8.46875 35.410156 C 8.414062 35.328125 8.398438 35.222656 8.429688 35.128906 L 11.941406 25.328125 C 11.988281 25.207031 12.101562 25.125 12.230469 25.125 L 14.023438 25.125 C 14.121094 25.125 14.214844 25.171875 14.273438 25.253906 C 14.328125 25.335938 14.34375 25.441406 14.308594 25.53125 L 10.769531 35.335938 C 10.726562 35.457031 10.613281 35.539062 10.484375 35.539062 Z M 10.484375 35.539062 "/><path style=" stroke:none;fill-rule:nonzero;fill:#0000ff;fill-opacity:1;" d="M 1.78125 5.246094 L 1.78125 22.871094 C 1.78125 24.15625 2.75 25.125 4.035156 25.125 L 33.058594 25.125 C 34.34375 25.125 35.3125 24.15625 35.3125 22.871094 L 35.3125 5.246094 Z M 33.058594 25.734375 L 4.035156 25.734375 C 2.402344 25.734375 1.167969 24.503906 1.167969 22.871094 L 1.167969 4.941406 C 1.167969 4.773438 1.304688 4.636719 1.476562 4.636719 L 35.617188 4.636719 C 35.785156 4.636719 35.921875 4.773438 35.921875 4.941406 L 35.921875 22.871094 C 35.921875 24.503906 34.691406 25.734375 33.058594 25.734375 Z M 33.058594 25.734375 "/><g clip-rule="nonzero" clip-path="url(#c1ddfca3d9)"><path style=" stroke:none;fill-rule:nonzero;fill:#0000ff;fill-opacity:1;" d="M 0.613281 4.636719 L 36.484375 4.636719 L 36.484375 3.539062 L 0.613281 3.539062 Z M 36.785156 5.246094 L 0.304688 5.246094 C 0.136719 5.246094 0 5.113281 0 4.941406 L 0 3.234375 C 0 3.066406 0.136719 2.929688 0.304688 2.929688 L 36.785156 2.929688 C 36.957031 2.929688 37.089844 3.066406 37.089844 3.234375 L 37.089844 4.941406 C 37.089844 5.113281 36.957031 5.246094 36.785156 5.246094 Z M 36.785156 5.246094 "/></g><g clip-rule="nonzero" clip-path="url(#d726cd2799)"><path style=" stroke:none;fill-rule:nonzero;fill:#0000ff;fill-opacity:1;" d="M 17.996094 2.929688 L 19.09375 2.929688 L 19.097656 2.378906 C 19.097656 2.039062 18.890625 1.835938 18.546875 1.835938 C 18.203125 1.835938 17.996094 2.039062 17.996094 2.382812 Z M 19.398438 3.539062 L 17.691406 3.539062 C 17.523438 3.539062 17.386719 3.402344 17.386719 3.234375 L 17.386719 2.382812 C 17.386719 1.703125 17.863281 1.226562 18.546875 1.226562 C 19.230469 1.226562 19.707031 1.703125 19.707031 2.382812 L 19.703125 3.238281 C 19.699219 3.402344 19.566406 3.539062 19.398438 3.539062 Z M 19.398438 3.539062 "/></g><path style=" stroke:none;fill-rule:nonzero;fill:#0000ff;fill-opacity:1;" d="M 35.503906 22.917969 L 34.886719 22.914062 C 34.382812 22.90625 33.972656 22.492188 33.972656 21.988281 L 33.980469 20.996094 C 33.335938 20.839844 32.714844 20.59375 32.128906 20.257812 L 31.457031 20.925781 C 31.28125 21.097656 31.050781 21.191406 30.808594 21.191406 C 30.804688 21.191406 30.800781 21.191406 30.796875 21.191406 C 30.550781 21.1875 30.324219 21.089844 30.152344 20.917969 L 28.953125 19.703125 C 28.78125 19.527344 28.6875 19.296875 28.6875 19.050781 C 28.6875 18.800781 28.785156 18.570312 28.960938 18.398438 L 29.59375 17.777344 C 29.234375 17.179688 28.96875 16.542969 28.800781 15.875 L 27.933594 15.871094 C 27.425781 15.863281 27.011719 15.449219 27.011719 14.945312 L 27.027344 13.234375 C 27.027344 12.992188 27.125 12.761719 27.300781 12.585938 C 27.476562 12.414062 27.71875 12.328125 27.957031 12.320312 L 28.820312 12.328125 C 29 11.660156 29.273438 11.023438 29.640625 10.433594 L 29.015625 9.804688 C 28.660156 9.441406 28.664062 8.859375 29.023438 8.496094 L 30.238281 7.300781 C 30.410156 7.128906 30.640625 7.035156 30.886719 7.035156 C 30.886719 7.035156 30.886719 7.035156 30.890625 7.035156 C 31.136719 7.035156 31.367188 7.132812 31.539062 7.308594 L 32.207031 7.984375 C 32.796875 7.65625 33.421875 7.417969 34.066406 7.269531 L 34.074219 6.273438 C 34.074219 6.03125 34.171875 5.800781 34.347656 5.628906 C 34.523438 5.453125 34.777344 5.367188 35.003906 5.363281 L 35.613281 5.367188 C 35.78125 5.367188 35.914062 5.507812 35.914062 5.675781 C 35.914062 5.839844 35.777344 5.976562 35.609375 5.976562 C 35.609375 5.976562 35.605469 5.976562 35.605469 5.976562 L 34.996094 5.972656 C 34.933594 5.976562 34.835938 6.003906 34.773438 6.0625 C 34.714844 6.121094 34.683594 6.195312 34.683594 6.277344 L 34.675781 7.519531 C 34.671875 7.664062 34.570312 7.789062 34.425781 7.816406 C 33.6875 7.957031 32.972656 8.230469 32.308594 8.625 C 32.191406 8.699219 32.035156 8.675781 31.9375 8.578125 L 31.105469 7.734375 C 31.046875 7.675781 30.96875 7.644531 30.886719 7.644531 C 30.800781 7.644531 30.722656 7.675781 30.664062 7.734375 L 29.453125 8.929688 C 29.332031 9.054688 29.328125 9.253906 29.445312 9.375 L 30.246094 10.179688 C 30.347656 10.28125 30.363281 10.445312 30.28125 10.5625 C 29.84375 11.21875 29.53125 11.9375 29.359375 12.699219 C 29.324219 12.839844 29.203125 12.9375 29.0625 12.9375 C 29.058594 12.9375 29.058594 12.9375 29.058594 12.9375 L 27.953125 12.929688 C 27.875 12.929688 27.785156 12.960938 27.726562 13.019531 C 27.667969 13.078125 27.636719 13.15625 27.636719 13.238281 L 27.621094 14.949219 C 27.621094 15.117188 27.765625 15.257812 27.9375 15.261719 L 29.042969 15.265625 C 29.1875 15.265625 29.308594 15.367188 29.339844 15.507812 C 29.503906 16.265625 29.804688 16.992188 30.238281 17.65625 C 30.316406 17.777344 30.300781 17.9375 30.195312 18.039062 L 29.386719 18.835938 C 29.328125 18.890625 29.296875 18.96875 29.296875 19.050781 C 29.296875 19.136719 29.328125 19.214844 29.386719 19.277344 L 30.585938 20.488281 C 30.644531 20.546875 30.722656 20.582031 30.804688 20.582031 C 30.804688 20.582031 30.804688 20.582031 30.808594 20.582031 C 30.890625 20.582031 30.96875 20.550781 31.027344 20.492188 L 31.871094 19.660156 C 31.96875 19.5625 32.125 19.542969 32.242188 19.617188 C 32.898438 20.023438 33.609375 20.304688 34.347656 20.453125 C 34.492188 20.480469 34.59375 20.605469 34.59375 20.753906 L 34.582031 21.988281 C 34.582031 22.160156 34.722656 22.304688 34.894531 22.304688 L 35.507812 22.308594 C 35.675781 22.3125 35.808594 22.449219 35.808594 22.617188 C 35.808594 22.785156 35.671875 22.917969 35.503906 22.917969 Z M 35.503906 22.917969 "/><path style=" stroke:none;fill-rule:nonzero;fill:#0000ff;fill-opacity:1;" d="M 35.5625 17.855469 C 35.554688 17.855469 35.546875 17.855469 35.539062 17.855469 C 33.582031 17.710938 32.0625 16.070312 32.070312 14.117188 C 32.089844 12.171875 33.628906 10.550781 35.582031 10.425781 C 35.746094 10.410156 35.898438 10.539062 35.90625 10.707031 C 35.917969 10.875 35.789062 11.019531 35.621094 11.03125 C 33.988281 11.136719 32.695312 12.496094 32.683594 14.121094 C 32.671875 15.753906 33.945312 17.125 35.585938 17.246094 C 35.75 17.261719 35.878906 17.40625 35.863281 17.574219 C 35.851562 17.734375 35.71875 17.855469 35.5625 17.855469 Z M 35.5625 17.855469 "/><path style=" stroke:none;fill-rule:nonzero;fill:#0000ff;fill-opacity:1;" d="M 8.929688 10.308594 C 6.117188 10.46875 3.875 12.804688 3.875 15.660156 C 3.875 18.613281 6.28125 21.019531 9.234375 21.019531 C 12.085938 21.019531 14.425781 18.777344 14.585938 15.964844 L 9.234375 15.964844 C 9.066406 15.964844 8.929688 15.828125 8.929688 15.660156 Z M 9.234375 21.628906 C 5.945312 21.628906 3.265625 18.949219 3.265625 15.660156 C 3.265625 12.367188 5.945312 9.691406 9.234375 9.691406 C 9.402344 9.691406 9.539062 9.828125 9.539062 9.996094 L 9.539062 15.351562 L 14.898438 15.351562 C 15.066406 15.351562 15.203125 15.488281 15.203125 15.660156 C 15.203125 18.949219 12.527344 21.628906 9.234375 21.628906 Z M 9.234375 21.628906 "/><path style=" stroke:none;fill-rule:nonzero;fill:#0000ff;fill-opacity:1;" d="M 10.484375 14.414062 L 15.53125 14.414062 C 15.378906 11.699219 13.199219 9.519531 10.484375 9.367188 Z M 15.84375 15.023438 L 10.179688 15.023438 C 10.011719 15.023438 9.875 14.886719 9.875 14.71875 L 9.875 9.054688 C 9.875 8.886719 10.011719 8.75 10.179688 8.75 C 13.472656 8.75 16.148438 11.425781 16.148438 14.71875 C 16.148438 14.886719 16.011719 15.023438 15.84375 15.023438 Z M 15.84375 15.023438 "/><path style=" stroke:none;fill-rule:nonzero;fill:#0000ff;fill-opacity:1;" d="M 24.980469 21.617188 L 9.035156 21.617188 C 8.867188 21.617188 8.730469 21.480469 8.730469 21.3125 C 8.730469 21.144531 8.867188 21.007812 9.035156 21.007812 L 24.980469 21.007812 C 25.148438 21.007812 25.285156 21.144531 25.285156 21.3125 C 25.285156 21.480469 25.148438 21.617188 24.980469 21.617188 Z M 24.980469 21.617188 "/><path style=" stroke:none;fill-rule:nonzero;fill:#0000ff;fill-opacity:1;" d="M 24.980469 19.230469 L 13.84375 19.230469 C 13.675781 19.230469 13.539062 19.09375 13.539062 18.925781 C 13.539062 18.757812 13.675781 18.621094 13.84375 18.621094 L 24.980469 18.621094 C 25.148438 18.621094 25.285156 18.757812 25.285156 18.925781 C 25.285156 19.09375 25.148438 19.230469 24.980469 19.230469 Z M 24.980469 19.230469 "/><path style=" stroke:none;fill-rule:nonzero;fill:#0000ff;fill-opacity:1;" d="M 24.980469 17.171875 L 14.894531 17.171875 C 14.726562 17.171875 14.589844 17.035156 14.589844 16.867188 C 14.589844 16.699219 14.726562 16.5625 14.894531 16.5625 L 24.980469 16.5625 C 25.148438 16.5625 25.285156 16.699219 25.285156 16.867188 C 25.285156 17.035156 25.148438 17.171875 24.980469 17.171875 Z M 24.980469 17.171875 "/><path style=" stroke:none;fill-rule:nonzero;fill:#0000ff;fill-opacity:1;" d="M 24.980469 15.023438 L 14.894531 15.023438 C 14.726562 15.023438 14.589844 14.886719 14.589844 14.71875 C 14.589844 14.550781 14.726562 14.414062 14.894531 14.414062 L 24.980469 14.414062 C 25.148438 14.414062 25.285156 14.550781 25.285156 14.71875 C 25.285156 14.886719 25.148438 15.023438 24.980469 15.023438 Z M 24.980469 15.023438 "/><path style=" stroke:none;fill-rule:nonzero;fill:#0000ff;fill-opacity:1;" d="M 24.980469 12.929688 L 15.421875 12.929688 C 15.253906 12.929688 15.117188 12.792969 15.117188 12.625 C 15.117188 12.457031 15.253906 12.320312 15.421875 12.320312 L 24.980469 12.320312 C 25.148438 12.320312 25.285156 12.457031 25.285156 12.625 C 25.285156 12.792969 25.148438 12.929688 24.980469 12.929688 Z M 24.980469 12.929688 "/><path style=" stroke:none;fill-rule:nonzero;fill:#0000ff;fill-opacity:1;" d="M 24.980469 10.75 L 13.839844 10.75 C 13.671875 10.75 13.535156 10.613281 13.535156 10.445312 C 13.535156 10.277344 13.671875 10.140625 13.839844 10.140625 L 24.980469 10.140625 C 25.148438 10.140625 25.285156 10.277344 25.285156 10.445312 C 25.285156 10.613281 25.148438 10.75 24.980469 10.75 Z M 24.980469 10.75 "/></g></svg>