<svg xmlns="http://www.w3.org/2000/svg" xmlns:xlink="http://www.w3.org/1999/xlink" width="50" zoomAndPan="magnify" viewBox="0 0 37.5 37.499999" height="50" preserveAspectRatio="xMidYMid meet" version="1.2"><defs><clipPath id="8d5abf5806"><path d="M 22 24 L 28 24 L 28 34.351562 L 22 34.351562 Z M 22 24 "/></clipPath><clipPath id="8dddbe8006"><path d="M 8 24 L 15 24 L 15 34.351562 L 8 34.351562 Z M 8 24 "/></clipPath><clipPath id="4125d8f590"><path d="M 0.925781 4 L 36 4 L 36 7 L 0.925781 7 Z M 0.925781 4 "/></clipPath><clipPath id="c1040715ef"><path d="M 17 2.523438 L 20 2.523438 L 20 5 L 17 5 Z M 17 2.523438 "/></clipPath></defs><g id="83352cfa8e"><path style=" stroke:none;fill-rule:nonzero;fill:#0000ff;fill-opacity:1;" d="M 12.621094 29.445312 L 23.636719 29.445312 L 23.269531 28.425781 L 12.988281 28.425781 Z M 24.046875 30.007812 C 24.046875 30.007812 24.042969 30.007812 24.039062 30.007812 L 12.21875 30.007812 C 12.125 30.007812 12.039062 29.964844 11.984375 29.890625 C 11.933594 29.8125 11.921875 29.71875 11.953125 29.628906 L 12.523438 28.046875 C 12.5625 27.933594 12.667969 27.859375 12.789062 27.859375 L 23.46875 27.859375 C 23.589844 27.859375 23.695312 27.933594 23.734375 28.046875 L 24.285156 29.570312 C 24.3125 29.613281 24.332031 29.667969 24.332031 29.726562 C 24.332031 29.882812 24.203125 30.007812 24.046875 30.007812 Z M 24.046875 30.007812 "/><g clip-rule="nonzero" clip-path="url(#8d5abf5806)"><path style=" stroke:none;fill-rule:nonzero;fill:#0000ff;fill-opacity:1;" d="M 25.804688 33.785156 L 26.847656 33.785156 L 23.789062 25.261719 L 22.726562 25.261719 Z M 27.25 34.351562 L 25.605469 34.351562 C 25.488281 34.351562 25.382812 34.277344 25.339844 34.164062 L 22.058594 25.074219 C 22.027344 24.988281 22.039062 24.894531 22.09375 24.816406 C 22.148438 24.742188 22.234375 24.695312 22.324219 24.695312 L 23.988281 24.695312 C 24.105469 24.695312 24.210938 24.773438 24.253906 24.882812 L 27.515625 33.972656 C 27.546875 34.058594 27.53125 34.15625 27.480469 34.230469 C 27.425781 34.304688 27.339844 34.351562 27.25 34.351562 Z M 27.25 34.351562 "/></g><g clip-rule="nonzero" clip-path="url(#8dddbe8006)"><path style=" stroke:none;fill-rule:nonzero;fill:#0000ff;fill-opacity:1;" d="M 9.414062 33.785156 L 10.453125 33.785156 L 13.53125 25.261719 L 12.46875 25.261719 Z M 10.652344 34.351562 L 9.015625 34.351562 C 8.921875 34.351562 8.835938 34.304688 8.78125 34.230469 C 8.730469 34.15625 8.714844 34.058594 8.746094 33.972656 L 12.003906 24.882812 C 12.042969 24.773438 12.152344 24.695312 12.269531 24.695312 L 13.933594 24.695312 C 14.027344 24.695312 14.113281 24.742188 14.164062 24.816406 C 14.21875 24.894531 14.230469 24.988281 14.199219 25.074219 L 10.917969 34.164062 C 10.875 34.277344 10.769531 34.351562 10.652344 34.351562 Z M 10.652344 34.351562 "/></g><path style=" stroke:none;fill-rule:nonzero;fill:#0000ff;fill-opacity:1;" d="M 2.578125 6.257812 L 2.578125 22.601562 C 2.578125 23.796875 3.476562 24.695312 4.667969 24.695312 L 31.585938 24.695312 C 32.78125 24.695312 33.679688 23.796875 33.679688 22.601562 L 33.679688 6.257812 Z M 31.585938 25.261719 L 4.667969 25.261719 C 3.179688 25.261719 2.011719 24.09375 2.011719 22.601562 L 2.011719 5.976562 C 2.011719 5.820312 2.140625 5.695312 2.296875 5.695312 L 33.964844 5.695312 C 34.121094 5.695312 34.246094 5.820312 34.246094 5.976562 L 34.246094 22.601562 C 34.246094 24.09375 33.078125 25.261719 31.585938 25.261719 Z M 31.585938 25.261719 "/><g clip-rule="nonzero" clip-path="url(#4125d8f590)"><path style=" stroke:none;fill-rule:nonzero;fill:#0000ff;fill-opacity:1;" d="M 1.496094 5.695312 L 34.765625 5.695312 L 34.765625 4.675781 L 1.496094 4.675781 Z M 35.046875 6.257812 L 1.210938 6.257812 C 1.054688 6.257812 0.929688 6.132812 0.929688 5.976562 L 0.929688 4.390625 C 0.929688 4.234375 1.054688 4.109375 1.210938 4.109375 L 35.046875 4.109375 C 35.203125 4.109375 35.328125 4.234375 35.328125 4.390625 L 35.328125 5.976562 C 35.328125 6.132812 35.203125 6.257812 35.046875 6.257812 Z M 35.046875 6.257812 "/></g><g clip-rule="nonzero" clip-path="url(#c1040715ef)"><path style=" stroke:none;fill-rule:nonzero;fill:#0000ff;fill-opacity:1;" d="M 17.621094 4.109375 L 18.636719 4.109375 L 18.636719 3.597656 C 18.636719 3.28125 18.445312 3.089844 18.128906 3.089844 C 17.8125 3.089844 17.621094 3.28125 17.621094 3.597656 Z M 18.917969 4.675781 L 17.339844 4.675781 C 17.183594 4.675781 17.054688 4.546875 17.054688 4.390625 L 17.054688 3.597656 C 17.054688 2.964844 17.496094 2.523438 18.128906 2.523438 C 18.761719 2.523438 19.199219 2.964844 19.199219 3.597656 L 19.199219 4.390625 C 19.199219 4.546875 19.074219 4.675781 18.917969 4.675781 Z M 18.917969 4.675781 "/></g><path style=" stroke:none;fill-rule:nonzero;fill:#0000ff;fill-opacity:1;" d="M 33.855469 22.644531 L 33.289062 22.640625 C 32.820312 22.636719 32.4375 22.25 32.4375 21.78125 L 32.445312 20.859375 C 31.839844 20.714844 31.265625 20.488281 30.726562 20.175781 L 30.101562 20.792969 C 29.941406 20.953125 29.742188 21.046875 29.496094 21.042969 C 29.265625 21.039062 29.054688 20.949219 28.894531 20.789062 L 27.785156 19.664062 C 27.625 19.503906 27.535156 19.289062 27.539062 19.058594 C 27.539062 18.832031 27.628906 18.617188 27.789062 18.453125 L 28.375 17.875 C 28.039062 17.320312 27.792969 16.730469 27.636719 16.109375 L 26.835938 16.105469 C 26.363281 16.105469 25.980469 15.722656 25.980469 15.25 L 25.996094 13.664062 C 25.996094 13.195312 26.378906 12.816406 26.855469 12.816406 L 27.660156 12.820312 C 27.828125 12.199219 28.082031 11.609375 28.417969 11.066406 L 27.835938 10.480469 C 27.675781 10.316406 27.589844 10.101562 27.59375 9.871094 C 27.597656 9.644531 27.6875 9.429688 27.851562 9.273438 L 28.972656 8.160156 C 29.132812 8 29.347656 7.914062 29.574219 7.914062 C 29.574219 7.914062 29.574219 7.914062 29.578125 7.914062 C 29.804688 7.914062 30.019531 8.003906 30.179688 8.164062 L 30.796875 8.792969 C 31.34375 8.488281 31.921875 8.265625 32.523438 8.128906 L 32.53125 7.210938 C 32.53125 6.742188 32.914062 6.359375 33.386719 6.359375 L 33.960938 6.363281 C 34.117188 6.367188 34.242188 6.492188 34.242188 6.648438 C 34.238281 6.804688 34.105469 6.941406 33.957031 6.929688 L 33.386719 6.925781 C 33.226562 6.925781 33.097656 7.054688 33.097656 7.214844 L 33.085938 8.363281 C 33.085938 8.496094 32.988281 8.613281 32.855469 8.636719 C 32.164062 8.769531 31.507812 9.023438 30.894531 9.390625 C 30.78125 9.457031 30.640625 9.4375 30.546875 9.347656 L 29.777344 8.5625 C 29.722656 8.507812 29.652344 8.476562 29.574219 8.476562 C 29.496094 8.476562 29.421875 8.507812 29.367188 8.5625 L 28.246094 9.675781 C 28.191406 9.730469 28.160156 9.800781 28.160156 9.878906 C 28.15625 9.957031 28.1875 10.027344 28.238281 10.082031 L 28.980469 10.828125 C 29.074219 10.921875 29.089844 11.074219 29.015625 11.183594 C 28.609375 11.785156 28.320312 12.453125 28.15625 13.167969 C 28.125 13.296875 28.011719 13.386719 27.878906 13.386719 L 26.851562 13.382812 C 26.691406 13.382812 26.5625 13.507812 26.5625 13.664062 L 26.546875 15.25 C 26.546875 15.40625 26.679688 15.539062 26.835938 15.539062 L 27.863281 15.546875 C 27.996094 15.546875 28.113281 15.640625 28.140625 15.769531 C 28.289062 16.476562 28.570312 17.144531 28.972656 17.761719 C 29.046875 17.875 29.03125 18.023438 28.933594 18.117188 L 28.1875 18.855469 C 28.132812 18.910156 28.101562 18.984375 28.101562 19.0625 C 28.101562 19.140625 28.132812 19.210938 28.183594 19.265625 L 29.296875 20.390625 C 29.351562 20.445312 29.421875 20.476562 29.5 20.476562 C 29.578125 20.476562 29.648438 20.449219 29.703125 20.394531 L 30.484375 19.621094 C 30.578125 19.527344 30.722656 19.511719 30.832031 19.582031 C 31.433594 19.957031 32.089844 20.214844 32.785156 20.355469 C 32.917969 20.382812 33.011719 20.5 33.011719 20.636719 L 33.003906 21.785156 C 33.003906 21.941406 33.132812 22.074219 33.292969 22.074219 L 33.859375 22.078125 C 34.015625 22.082031 34.140625 22.207031 34.140625 22.363281 C 34.136719 22.519531 34.011719 22.644531 33.855469 22.644531 Z M 33.855469 22.644531 "/><path style=" stroke:none;fill-rule:nonzero;fill:#0000ff;fill-opacity:1;" d="M 33.910156 17.949219 C 33.902344 17.949219 33.894531 17.949219 33.890625 17.949219 C 32.078125 17.816406 30.664062 16.292969 30.671875 14.484375 C 30.6875 12.675781 32.121094 11.171875 33.933594 11.0625 C 34.082031 11.050781 34.222656 11.171875 34.230469 11.328125 C 34.242188 11.480469 34.121094 11.617188 33.96875 11.625 C 32.449219 11.71875 31.25 12.976562 31.238281 14.488281 C 31.230469 16 32.414062 17.273438 33.929688 17.386719 C 34.085938 17.398438 34.203125 17.535156 34.191406 17.6875 C 34.179688 17.835938 34.058594 17.949219 33.910156 17.949219 Z M 33.910156 17.949219 "/><path style=" stroke:none;fill-rule:nonzero;fill:#0000ff;fill-opacity:1;" d="M 33.855469 23.164062 L 2.417969 23.164062 C 2.261719 23.164062 2.136719 23.035156 2.136719 22.882812 C 2.136719 22.722656 2.261719 22.597656 2.417969 22.597656 L 33.855469 22.597656 C 34.011719 22.597656 34.140625 22.722656 34.140625 22.882812 C 34.140625 23.035156 34.011719 23.164062 33.855469 23.164062 Z M 33.855469 23.164062 "/><path style=" stroke:none;fill-rule:nonzero;fill:#0000ff;fill-opacity:1;" d="M 12.667969 19.273438 C 12.664062 19.28125 12.664062 19.285156 12.660156 19.292969 C 12.609375 19.386719 12.578125 19.484375 12.574219 19.582031 L 12.351562 22.277344 L 14.648438 20.855469 C 14.730469 20.804688 14.800781 20.742188 14.867188 20.652344 L 20.359375 11.65625 L 18.148438 10.304688 Z M 12.207031 22.957031 C 12.128906 22.957031 12.050781 22.9375 11.980469 22.894531 C 11.84375 22.824219 11.757812 22.660156 11.769531 22.492188 L 12.011719 19.539062 C 12.019531 19.40625 12.050781 19.269531 12.109375 19.132812 C 12.113281 19.105469 12.125 19.078125 12.144531 19.050781 L 17.8125 9.769531 C 17.894531 9.636719 18.066406 9.59375 18.199219 9.675781 L 20.894531 11.320312 C 21.027344 11.402344 21.070312 11.578125 20.988281 11.710938 L 15.363281 20.921875 C 15.355469 20.9375 15.347656 20.953125 15.335938 20.96875 C 15.328125 20.984375 15.316406 20.996094 15.300781 21.011719 C 15.1875 21.15625 15.070312 21.257812 14.945312 21.335938 L 12.433594 22.894531 C 12.371094 22.933594 12.289062 22.957031 12.207031 22.957031 Z M 12.207031 22.957031 "/><path style=" stroke:none;fill-rule:nonzero;fill:#0000ff;fill-opacity:1;" d="M 18.929688 9.039062 L 21.128906 10.378906 L 21.496094 9.78125 C 21.644531 9.53125 21.566406 9.203125 21.316406 9.050781 L 20.027344 8.265625 C 19.78125 8.113281 19.445312 8.203125 19.296875 8.441406 Z M 21.222656 11.050781 C 21.171875 11.050781 21.121094 11.039062 21.074219 11.007812 L 18.394531 9.375 C 18.332031 9.335938 18.285156 9.269531 18.265625 9.199219 C 18.25 9.125 18.261719 9.046875 18.300781 8.984375 L 18.8125 8.144531 C 19.015625 7.816406 19.367188 7.621094 19.753906 7.621094 C 19.953125 7.621094 20.152344 7.679688 20.324219 7.785156 L 21.609375 8.570312 C 22.125 8.878906 22.289062 9.554688 21.980469 10.074219 L 21.464844 10.917969 C 21.410156 11.003906 21.316406 11.050781 21.222656 11.050781 Z M 21.222656 11.050781 "/><path style=" stroke:none;fill-rule:nonzero;fill:#0000ff;fill-opacity:1;" d="M 18.441406 9.824219 L 20.65625 11.175781 L 20.84375 10.867188 L 18.632812 9.515625 Z M 20.75 11.84375 C 20.699219 11.84375 20.648438 11.832031 20.601562 11.804688 L 17.90625 10.15625 C 17.84375 10.117188 17.796875 10.054688 17.777344 9.984375 C 17.761719 9.910156 17.773438 9.832031 17.8125 9.769531 L 18.292969 8.980469 C 18.332031 8.917969 18.394531 8.871094 18.46875 8.851562 C 18.542969 8.835938 18.617188 8.847656 18.683594 8.886719 L 21.378906 10.53125 C 21.511719 10.613281 21.554688 10.785156 21.472656 10.917969 L 20.988281 11.710938 C 20.9375 11.796875 20.84375 11.84375 20.75 11.84375 Z M 20.75 11.84375 "/><path style=" stroke:none;fill-rule:nonzero;fill:#0000ff;fill-opacity:1;" d="M 13.632812 22.097656 C 13.585938 22.097656 13.535156 22.085938 13.488281 22.058594 L 12.03125 21.167969 C 11.898438 21.085938 11.855469 20.914062 11.9375 20.78125 C 12.015625 20.648438 12.191406 20.605469 12.324219 20.6875 L 13.78125 21.574219 C 13.914062 21.65625 13.957031 21.828125 13.875 21.960938 C 13.824219 22.050781 13.730469 22.097656 13.632812 22.097656 Z M 13.632812 22.097656 "/><path style=" stroke:none;fill-rule:nonzero;fill:#0000ff;fill-opacity:1;" d="M 15.011719 21.171875 C 14.960938 21.171875 14.910156 21.15625 14.863281 21.128906 L 12.230469 19.519531 C 12.097656 19.4375 12.058594 19.265625 12.136719 19.128906 C 12.21875 18.996094 12.394531 18.957031 12.527344 19.035156 L 15.160156 20.648438 C 15.292969 20.730469 15.335938 20.902344 15.253906 21.035156 C 15.199219 21.125 15.105469 21.171875 15.011719 21.171875 Z M 15.011719 21.171875 "/><path style=" stroke:none;fill-rule:nonzero;fill:#0000ff;fill-opacity:1;" d="M 13.019531 19.957031 C 12.96875 19.957031 12.917969 19.941406 12.871094 19.914062 C 12.738281 19.832031 12.699219 19.660156 12.78125 19.527344 L 18.488281 10.183594 C 18.570312 10.050781 18.742188 10.007812 18.875 10.089844 C 19.011719 10.171875 19.050781 10.34375 18.96875 10.476562 L 13.261719 19.820312 C 13.207031 19.90625 13.117188 19.957031 13.019531 19.957031 Z M 13.019531 19.957031 "/><path style=" stroke:none;fill-rule:nonzero;fill:#0000ff;fill-opacity:1;" d="M 15.308594 20.859375 C 15.152344 20.859375 15.027344 20.734375 15.023438 20.578125 C 15.023438 20.425781 15.148438 20.296875 15.304688 20.292969 L 28.953125 20.167969 C 29.109375 20.167969 29.234375 20.292969 29.238281 20.449219 C 29.238281 20.605469 29.113281 20.730469 28.957031 20.734375 Z M 12.175781 20.859375 L 2.417969 20.859375 C 2.261719 20.859375 2.136719 20.734375 2.136719 20.578125 C 2.136719 20.421875 2.261719 20.292969 2.417969 20.292969 L 12.175781 20.292969 C 12.332031 20.292969 12.460938 20.421875 12.460938 20.578125 C 12.460938 20.734375 12.332031 20.859375 12.175781 20.859375 Z M 12.175781 20.859375 "/><path style=" stroke:none;fill-rule:nonzero;fill:#0000ff;fill-opacity:1;" d="M 12.941406 18.558594 L 2.296875 18.558594 C 2.140625 18.558594 2.011719 18.433594 2.011719 18.277344 C 2.011719 18.121094 2.140625 17.996094 2.296875 17.996094 L 12.941406 17.996094 C 13.097656 17.996094 13.222656 18.121094 13.222656 18.277344 C 13.222656 18.433594 13.097656 18.558594 12.941406 18.558594 Z M 28.28125 18.558594 L 16.714844 18.558594 C 16.558594 18.558594 16.433594 18.433594 16.433594 18.277344 C 16.433594 18.121094 16.558594 17.996094 16.714844 17.996094 L 28.28125 17.996094 C 28.4375 17.996094 28.5625 18.121094 28.5625 18.277344 C 28.5625 18.433594 28.4375 18.558594 28.28125 18.558594 Z M 28.28125 18.558594 "/><path style=" stroke:none;fill-rule:nonzero;fill:#0000ff;fill-opacity:1;" d="M 14.328125 16.257812 L 2.417969 16.257812 C 2.261719 16.257812 2.136719 16.128906 2.136719 15.972656 C 2.136719 15.816406 2.261719 15.691406 2.417969 15.691406 L 14.328125 15.691406 C 14.484375 15.691406 14.609375 15.816406 14.609375 15.972656 C 14.609375 16.128906 14.484375 16.257812 14.328125 16.257812 Z M 27.871094 16.257812 L 18.15625 16.257812 C 18 16.257812 17.871094 16.128906 17.871094 15.972656 C 17.871094 15.816406 18 15.691406 18.15625 15.691406 L 27.871094 15.691406 C 28.027344 15.691406 28.15625 15.816406 28.15625 15.972656 C 28.15625 16.128906 28.027344 16.257812 27.871094 16.257812 Z M 27.871094 16.257812 "/><path style=" stroke:none;fill-rule:nonzero;fill:#0000ff;fill-opacity:1;" d="M 15.703125 13.957031 L 2.417969 13.957031 C 2.261719 13.957031 2.136719 13.832031 2.136719 13.671875 C 2.136719 13.519531 2.261719 13.390625 2.417969 13.390625 L 15.703125 13.390625 C 15.859375 13.390625 15.984375 13.519531 15.984375 13.671875 C 15.984375 13.832031 15.859375 13.957031 15.703125 13.957031 Z M 26.144531 13.957031 L 19.453125 13.957031 C 19.296875 13.957031 19.171875 13.832031 19.171875 13.671875 C 19.171875 13.519531 19.296875 13.390625 19.453125 13.390625 L 26.144531 13.390625 C 26.304688 13.390625 26.429688 13.519531 26.429688 13.671875 C 26.429688 13.832031 26.304688 13.957031 26.144531 13.957031 Z M 26.144531 13.957031 "/><path style=" stroke:none;fill-rule:nonzero;fill:#0000ff;fill-opacity:1;" d="M 17.121094 11.652344 L 2.417969 11.652344 C 2.261719 11.652344 2.136719 11.527344 2.136719 11.371094 C 2.136719 11.214844 2.261719 11.085938 2.417969 11.085938 L 17.121094 11.085938 C 17.277344 11.085938 17.402344 11.214844 17.402344 11.371094 C 17.402344 11.527344 17.277344 11.652344 17.121094 11.652344 Z M 28.472656 11.652344 L 20.855469 11.652344 C 20.699219 11.652344 20.570312 11.527344 20.570312 11.371094 C 20.570312 11.214844 20.699219 11.085938 20.855469 11.085938 L 28.472656 11.085938 C 28.628906 11.085938 28.753906 11.214844 28.753906 11.371094 C 28.753906 11.527344 28.628906 11.652344 28.472656 11.652344 Z M 28.472656 11.652344 "/><path style=" stroke:none;fill-rule:nonzero;fill:#0000ff;fill-opacity:1;" d="M 28.472656 9.308594 L 21.710938 9.308594 C 21.554688 9.308594 21.425781 9.183594 21.425781 9.027344 C 21.425781 8.871094 21.554688 8.742188 21.710938 8.742188 L 28.472656 8.742188 C 28.628906 8.742188 28.753906 8.871094 28.753906 9.027344 C 28.753906 9.183594 28.628906 9.308594 28.472656 9.308594 Z M 2.417969 9.308594 C 2.261719 9.308594 2.136719 9.183594 2.136719 9.027344 C 2.136719 8.871094 2.261719 8.742188 2.417969 8.742188 L 18.558594 8.734375 C 18.714844 8.734375 18.839844 8.859375 18.839844 9.015625 C 18.839844 9.171875 18.714844 9.300781 18.558594 9.300781 Z M 2.417969 9.308594 "/></g></svg>